<?xml version="1.0" encoding="UTF-8" standalone="no"?>
<svg
   width="32"
   height="32"
   viewBox="0 0 32 32"
   fill="none"
   version="1.1"
   id="svg8"
   sodipodi:docname="appointment-new.svg"
   inkscape:version="1.4.2 (ebf0e940d0, 2025-05-08)"
   xmlns:inkscape="http://www.inkscape.org/namespaces/inkscape"
   xmlns:sodipodi="http://sodipodi.sourceforge.net/DTD/sodipodi-0.dtd"
   xmlns="http://www.w3.org/2000/svg"
   xmlns:svg="http://www.w3.org/2000/svg">
  <sodipodi:namedview
     id="namedview8"
     pagecolor="#ffffff"
     bordercolor="#000000"
     borderopacity="0.25"
     inkscape:showpageshadow="2"
     inkscape:pageopacity="0.0"
     inkscape:pagecheckerboard="0"
     inkscape:deskcolor="#d1d1d1"
     inkscape:zoom="13.815616"
     inkscape:cx="8.9753511"
     inkscape:cy="17.842129"
     inkscape:window-width="1906"
     inkscape:window-height="964"
     inkscape:window-x="0"
     inkscape:window-y="0"
     inkscape:window-maximized="1"
     inkscape:current-layer="svg8" />
  <defs
     id="defs8">
    <linearGradient
       id="paint0_linear_5_77"
       x1="16"
       y1="30"
       x2="16"
       y2="2"
       gradientUnits="userSpaceOnUse">
      <stop
         stop-color="#FD5900"
         id="stop3" />
      <stop
         offset="1"
         stop-color="#FFDE00"
         id="stop4" />
    </linearGradient>
    <linearGradient
       id="paint1_linear_5_77"
       x1="18.2727"
       y1="23"
       x2="18.2727"
       y2="9"
       gradientUnits="userSpaceOnUse">
      <stop
         stop-color="#FD5900"
         id="stop5" />
      <stop
         offset="1"
         stop-color="#FFDE00"
         id="stop6" />
    </linearGradient>
    <linearGradient
       id="paint2_linear_5_77"
       x1="18.2727"
       y1="23"
       x2="18.2727"
       y2="9"
       gradientUnits="userSpaceOnUse">
      <stop
         stop-color="#FD5900"
         id="stop7" />
      <stop
         offset="1"
         stop-color="#FFDE00"
         id="stop8" />
    </linearGradient>
  </defs>
  <path
     d="M 4.1,16 C 4.1,9.427812 9.427812,4.1 16,4.1 22.57216,4.1 27.9,9.427812 27.9,16 27.9,22.57216 22.57216,27.9 16,27.9 9.427812,27.9 4.1,22.57216 4.1,16 Z M 16,2 C 8.26801,2 2,8.26801 2,16 2,23.73192 8.26801,30 16,30 23.73192,30 30,23.73192 30,16 30,8.26801 23.73192,2 16,2 Z M 15.9903,8.507578 C 15.9209,7.995262 15.4813,7.6 14.95,7.6 14.3704,7.6 13.9,8.0704 13.9,8.65 v 8.4 l 0.0097,0.14238 C 13.9791,17.70478 14.4187,18.1 14.95,18.1 h 5.6 l 0.14238,-0.0097 C 21.20478,18.0209 21.6,17.5813 21.6,17.05 21.6,16.4704 21.1296,16 20.55,16 H 16 V 8.65 Z"
     fill="#000000"
     id="path1-3"
     style="stroke-width:1.4" />
</svg>
