<?xml version="1.0" encoding="UTF-8" standalone="no"?>
<svg
   width="32"
   height="32"
   viewBox="0 0 32 32"
   fill="none"
   version="1.1"
   id="svg5"
   sodipodi:docname="view-readermode.svg"
   inkscape:version="1.4.2 (ebf0e940d0, 2025-05-08)"
   xmlns:inkscape="http://www.inkscape.org/namespaces/inkscape"
   xmlns:sodipodi="http://sodipodi.sourceforge.net/DTD/sodipodi-0.dtd"
   xmlns="http://www.w3.org/2000/svg"
   xmlns:svg="http://www.w3.org/2000/svg">
  <sodipodi:namedview
     id="namedview5"
     pagecolor="#ffffff"
     bordercolor="#000000"
     borderopacity="0.25"
     inkscape:showpageshadow="2"
     inkscape:pageopacity="0.0"
     inkscape:pagecheckerboard="0"
     inkscape:deskcolor="#d1d1d1"
     inkscape:zoom="16.833333"
     inkscape:cx="19.009901"
     inkscape:cy="11.792079"
     inkscape:window-width="1906"
     inkscape:window-height="964"
     inkscape:window-x="0"
     inkscape:window-y="0"
     inkscape:window-maximized="1"
     inkscape:current-layer="svg5" />
  <defs
     id="defs5">
    <linearGradient
       id="paint0_linear_8_691"
       x1="6.5"
       y1="21.204"
       x2="6.5"
       y2="2.06006"
       gradientUnits="userSpaceOnUse"
       gradientTransform="matrix(1.208446,0,0,1.208446,1.4986483,1.5618076)">
      <stop
         stop-color="#5570FF"
         id="stop2" />
      <stop
         offset="1"
         stop-color="#4DD3FF"
         id="stop3" />
    </linearGradient>
    <linearGradient
       id="paint1_linear_8_691"
       x1="17.5"
       y1="21.203899"
       x2="17.5"
       y2="2"
       gradientUnits="userSpaceOnUse"
       gradientTransform="matrix(1.208446,0,0,1.208446,1.4986483,1.5618076)">
      <stop
         stop-color="#5570FF"
         id="stop4" />
      <stop
         offset="1"
         stop-color="#4DD3FF"
         id="stop5" />
    </linearGradient>
  </defs>
  <path
     d="m 16,26.056102 c -0.706429,0.748271 -1.7076,1.215185 -2.817822,1.215185 H 4.3764854 c -1.3617124,0 -2.4655942,-1.103881 -2.4655942,-2.465594 V 7.194307 c 0,-1.3617124 1.1038818,-2.4655946 2.4655942,-2.4655946 h 8.8056926 c 1.110222,0 2.111393,0.4669835 2.817822,1.2152284 0.706427,-0.7482449 1.7076,-1.2152284 2.817822,-1.2152284 h 8.805693 c 1.361712,0 2.465594,1.1038822 2.465594,2.4655946 v 17.611386 c 0,1.361713 -1.103882,2.465594 -2.465594,2.465594 H 18.817822 C 17.7076,27.271287 16.706427,26.804375 16,26.056102 Z M 4.0242577,7.194307 v 17.611386 c 0,0.194571 0.1576994,0.352228 0.3522277,0.352228 h 8.8056926 c 0.972712,0 1.761139,-0.788427 1.761139,-1.761139 V 8.6032179 c 0,-0.9726556 -0.788427,-1.7611386 -1.761139,-1.7611386 H 4.3764854 c -0.1945283,0 -0.3522277,0.1576994 -0.3522277,0.3522277 z M 17.056683,23.396782 c 0,0.972712 0.788427,1.761139 1.761139,1.761139 h 8.805693 c 0.19457,0 0.352228,-0.157657 0.352228,-0.352228 V 7.194307 c 0,-0.1945283 -0.157658,-0.3522277 -0.352228,-0.3522277 h -8.805693 c -0.972712,0 -1.761139,0.788483 -1.761139,1.7611386 z"
     fill="#000000"
     id="path1-3"
     style="stroke-width:1.40891" />
</svg>
